PathFileType	4	(X/Y/Z)	C:/Users/beibeiliu/ov580/test_trc/User3\sequence.28_training_dense_left.trc
DataRate	CameraRate	NumFrames	NumMarkers	Units	OrigDataRate	OrigDataStartFrame	OrigNumFrames
120	120	9	19	mm	120	64	252
Frame#	Time	ThumbCMC			ThumbMCP			ThumbIP			ThumbTip			IndexMCP			IndexPIP			IndexTip			MiddleMCP			MiddlePIP			MiddleTip			RingMCP			RingPIP			RingTip			PinkyMCP			PinkyPIP			PinkyTip			BackHand1			BackHand2			BackHand3	
		X0	Y0	Z0	X1	Y1	Z1	X2	Y2	Z2	X3	Y3	Z3	X4	Y4	Z4	X5	Y5	Z5	X6	Y6	Z6	X7	Y7	Z7	X8	Y8	Z8	X9	Y9	Z9	X10	Y10	Z10	X11	Y11	Z11	X12	Y12	Z12	X13	Y13	Z13	X14	Y14	Z14	X15	Y15	Z15	X16	Y16	Z16	X17	Y17	Z17	X18	Y18	Z18	
63	0.525	-236.145	-0.533805	-6.82348	-225.975	23.792	-27.847	-207.867	37.8934	-45.7693	-179.671	34.8241	-51.3494	-211.846	-27.5511	-74.4057	-200.713	-18.7848	-105.292	-182.093	8.09251	-105.877	-186.673	-41.6095	-75.8012	-167.807	-26.1402	-95.9162	-157.259	6.43467	-74.258	-169.566	-40.0028	-58.115	-148.683	-17.3983	-70.4467	-148.185	4.25731	-45.7461	-156.761	-36.8945	-36.7247	-139.513	-11.8312	-36.8828	-152.375	9.1231	-18.0085	-200.972	-54.7167	-17.267	-210.106	-61.6373	11.8833	-230.714	-39.283	-18.4396	
64	0.533333	-234.922	-2.68757	-8.27047	-227.059	24.6397	-25.348	-206.481	40.9235	-49.5656	-180.419	34.9199	-50.4018	-212.541	-29.0825	-77.1154	-200.342	-16.5114	-105.898	-186.126	8.99013	-102.386	-193.392	-43.2581	-76.6713	-170.042	-29.1407	-98.4315	-156.22	2.23168	-80.092	-170.587	-44.3867	-62.0619	-151.224	-23.9421	-75.0182	-151.142	2.4195	-52.7594	-158.08	-36.2085	-39.7665	-142.06	-11.9153	-40.6294	-149.349	5.58887	-17.725	-200.416	-56.6947	-17.6291	-210.993	-59.1869	9.96891	-230.846	-37.8683	-16.8711	
65	0.541667	-235.787	-1.8885	-8.04527	-224.223	23.9285	-30.1789	-208.012	39.3659	-44.0897	-180.043	35.1807	-51.8242	-215.392	-28.0035	-73.1052	-199.913	-17.658	-104.077	-182.752	10.6266	-97.6061	-196.462	-45.0422	-76.6216	-173.109	-35.3251	-99.4752	-155.63	-5.88303	-88.8181	-176.23	-43.0489	-64.4486	-154.24	-24.8788	-77.0607	-150.472	-0.942331	-55.423	-157.415	-35.043	-42.4341	-142.164	-12.9219	-38.7777	-156.754	5.83086	-20.0911	-201.683	-56.1613	-15.8622	-209.83	-62.7315	7.5904	-230.833	-41.609	-15.5189	
66	0.55	-237.39	-0.445076	-7.84023	-227.446	25.2908	-27.1929	-207.433	39.7742	-46.5585	-178.542	36.6079	-53.6134	-217.72	-27.6359	-72.8019	-204.339	-18.7059	-104.349	-186.813	9.61196	-97.9336	-197.265	-48.2746	-75.3855	-182.555	-39.939	-102.071	-158.66	-6.30817	-92.2317	-176.402	-45.1311	-63.7893	-153.619	-29.224	-77.5222	-151.706	-2.64398	-60.2141	-158.67	-38.7304	-39.3501	-146.361	-12.661	-40.4504	-156.133	1.51321	-15.4314	-204.024	-57.0933	-16.5279	-210.33	-60.5622	8.41608	-233.291	-41.4583	-15.1215	
67	0.558333	-238.889	0.105051	-8.78692	-226.287	24.9966	-26.5407	-207.842	41.6338	-48.1067	-178.341	32.7952	-52.2525	-216.561	-30.057	-72.6546	-207.62	-21.8614	-103.877	-189.98	6.16874	-102.409	-197.817	-48.0904	-73.2177	-180.191	-41.0652	-101.183	-159.769	-10.6927	-94.4653	-177.54	-45.7629	-63.1192	-155.579	-26.7064	-77.3143	-155.341	-1.76946	-57.9479	-156.329	-34.5577	-41.6909	-147.218	-8.77748	-36.5582	-165.125	0.852974	-13.7616	-203.798	-58.3188	-17.3384	-211.727	-58.8543	7.30645	-233.283	-40.3901	-15.7174	
68	0.566667	-238.888	1.06166	-7.86397	-226.045	26.5812	-27.2802	-208.263	38.9109	-45.4596	-178.621	36.7057	-54.1074	-219.445	-31.5051	-75.2046	-207.661	-24.0229	-106.88	-189.017	-0.538796	-105.211	-198.746	-49.9285	-73.3911	-180.71	-44.2139	-99.4124	-162.998	-10.0513	-94.3243	-179.564	-44.6681	-62.5231	-156.541	-27.1837	-77.1708	-153.497	-3.47594	-55.6595	-155.842	-35.0683	-39.9936	-150.195	-6.89906	-36.1588	-167.953	1.45519	-14.8602	-203.108	-56.4925	-20.7309	-211.68	-61.6729	8.48126	-231.533	-39.874	-16.3745	
69	0.575	-236.625	-1.71491	-6.91756	-223.884	24.0814	-29.6527	-207.925	40.03	-48.7943	-179.868	38.4868	-55.4361	-223.56	-31.9308	-75.1447	-211.302	-28.2132	-106.342	-192.665	-5.04714	-109.435	-196.421	-50.7678	-76.1601	-178.52	-43.6249	-99.3395	-162.395	-7.11759	-88.4651	-174.153	-44.4675	-62.3426	-153.731	-26.4597	-74.6787	-157.924	-0.535012	-52.9605	-155.633	-32.2622	-40.1329	-152.459	-4.92508	-33.7356	-167.965	1.07043	-10.5292	-203.214	-58.7034	-16.8946	-212.008	-60.6018	12.6135	-232.265	-40.1867	-15.5246	
70	0.583333	-238.816	-0.0379824	-8.28866	-223.214	20.8211	-27.455	-207.855	39.78	-48.2524	-180.167	37.5726	-56.9669	-224.192	-33.7151	-73.503	-219.759	-33.3391	-104.013	-194.271	-8.85499	-114.722	-198.101	-46.7841	-75.3075	-176.63	-39.8229	-98.4441	-165.562	-3.99975	-86.1199	-172.658	-42.4596	-61.3401	-154.204	-16.1239	-70.1316	-163.202	2.01294	-42.1919	-154.682	-29.4582	-38.595	-150.408	-5.26667	-27.9192	-175.766	-1.31764	-7.54008	-200.763	-58.8596	-19.1556	-215.048	-57.5556	9.90998	-232.853	-40.2379	-15.174	
71	0.591667	-237.631	-1.59583	-11.1027	-226.072	22.73	-25.424	-208.147	37.0707	-46.8093	-181.179	40.1639	-56.9653	-219.136	-36.9211	-71.6807	-216.461	-35.8168	-104.435	-197.496	-14.4428	-119.373	-195.463	-46.9971	-74.323	-175.971	-33.6365	-98.3659	-164.579	1.07523	-77.6127	-170.951	-36.4736	-62.8437	-153.398	-15.1707	-66.7103	-165.947	2.87769	-35.4477	-157.485	-31.6986	-34.7177	-154.87	-3.34446	-25.999	-177.678	-1.68275	-3.63104	-199.854	-58.2516	-19.995	-212.671	-60.4568	9.42907	-234.467	-40.1857	-17.6908	
